<svg width="800" height="600" xmlns="http://www.w3.org/2000/svg">

 <g>
  <title>background</title>
  <rect fill="none" id="canvas_background" height="602" width="802" y="-1" x="-1"/>
 </g>
 <g>
  <title>Layer 1</title>
  <path id="svg_2" fill="#4C5254" d="m486.726,283.4c0,57.6 -47.2,104.8 -104.8,104.8s-104.8,-47.2 -104.8,-104.8s47.2,-104.8 104.8,-104.8c57.6,0 104.8,47.2 104.8,104.8z"/>
  <path id="svg_3" fill="#2F423F" d="m455.526,209.8c40.8,40.8 40.8,107.2 0,148s-107.2,40.8 -148,0"/>
  <path id="svg_4" fill="#dddddd" d="m467.526,173c-56,47.2 -83.2,64 -80.8,98.4c3.2,44 -80.8,-44 -80.8,-98.4s36,-76 80.8,-76c44.8,0 122.4,40.8 80.8,76z"/>
  <path id="svg_5" fill="none" d="m386.526,96c44.8,0 122.4,41.6 80.8,76c-56,47.2 -83.2,64 -80.8,98.4"/>
  <path id="svg_6" fill="#dddddd" d="m492.326,369.8c-47.2,-56 -64,-83.2 -98.4,-80.8c-44,3.2 44,-80.8 98.4,-80.8s76,36 76,80.8c0,44 -40.8,122.4 -76,80.8z"/>
  <g id="svg_7">
   <path id="svg_8" fill="#dddddd" d="m568.326,289c0,44.8 -41.6,122.4 -76,80.8c-47.2,-56 -64,-83.2 -98.4,-80.8"/>
   <path id="svg_9" fill="#dddddd" d="m296.326,394.6c56,-47.2 83.2,-64 80.8,-98.4c-3.2,-44.8 80.8,44 80.8,98.4s-36,76 -80.8,76s-122.4,-41.6 -80.8,-76z"/>
  </g>
  <path fill-opacity="0" id="svg_10" fill="#dddddd" d="m376.326,470.6c-44.8,0 -122.4,-41.6 -80.8,-76c56,-47.2 83.2,-64 80.8,-98.4"/>
  <path id="svg_11" fill="#dddddd" d="m271.526,197.8c47.2,56 64,83.2 98.4,80.8c44,-4 -44,80 -98.4,80s-76,-36 -76,-80.8c0,-44 40.8,-121.6 76,-80z"/>
  <path stroke="#A8FFE9" id="svg_12" fill="none" d="m195.526,278.6c0,-44.8 41.6,-122.4 76,-80.8c47.2,56 64,83.2 98.4,80.8"/>
  <circle id="svg_13" fill="#32BA7C" r="24.799999" cy="283.4" cx="381.926"/>
  <path id="svg_14" fill="#0AA06E" d="m399.526,266.6c9.6,9.6 9.6,24.8 0,34.4c-9.6,9.6 -24.8,9.6 -34.4,0"/>
  <g id="svg_25"/>
  <g id="svg_26"/>
  <g id="svg_27"/>
  <g id="svg_28"/>
  <g id="svg_29"/>
  <g id="svg_30"/>
  <g id="svg_31"/>
  <g id="svg_32"/>
  <g id="svg_33"/>
  <g id="svg_34"/>
  <g id="svg_35"/>
  <g id="svg_36"/>
  <g id="svg_37"/>
  <g id="svg_38"/>
  <g id="svg_39"/>
 </g>
</svg>