<svg width="800" height="600" xmlns="http://www.w3.org/2000/svg">

 <g>
  <title>background</title>
  <rect fill="none" id="canvas_background" height="602" width="802" y="-1" x="-1"/>
 </g>
 <g>
  <title>Layer 1</title>
  <path id="svg_2" fill="#4C5254" d="m486.726,283.4c0,57.6 -47.2,104.8 -104.8,104.8s-104.8,-47.2 -104.8,-104.8s47.2,-104.8 104.8,-104.8c57.6,0 104.8,47.2 104.8,104.8z"/>
  <path id="svg_3" fill="#2F423F" d="m455.526,209.8c40.8,40.8 40.8,107.2 0,148s-107.2,40.8 -148,0"/>
  <path id="svg_4" fill="#FFC114" d="m467.526,173c-56,47.2 -83.2,64 -80.8,98.4c3.2,44 -80.8,-44 -80.8,-98.4s36,-76 80.8,-76c44.8,0 122.4,40.8 80.8,76z"/>
  <path id="svg_5" fill="#FCA12A" d="m386.526,96c44.8,0 122.4,41.6 80.8,76c-56,47.2 -83.2,64 -80.8,98.4"/>
  <path id="svg_6" fill="#FFC114" d="m492.326,369.8c-47.2,-56 -64,-83.2 -98.4,-80.8c-44,3.2 44,-80.8 98.4,-80.8s76,36 76,80.8c0,44 -40.8,122.4 -76,80.8z"/>
  <g id="svg_7">
   <path id="svg_8" fill="#FCA12A" d="m568.326,289c0,44.8 -41.6,122.4 -76,80.8c-47.2,-56 -64,-83.2 -98.4,-80.8"/>
   <path id="svg_9" fill="#FCA12A" d="m296.326,394.6c56,-47.2 83.2,-64 80.8,-98.4c-3.2,-44.8 80.8,44 80.8,98.4s-36,76 -80.8,76s-122.4,-41.6 -80.8,-76z"/>
  </g>
  <path id="svg_10" fill="#FFC114" d="m376.326,470.6c-44.8,0 -122.4,-41.6 -80.8,-76c56,-47.2 83.2,-64 80.8,-98.4"/>
  <path id="svg_11" fill="#FCA12A" d="m271.526,197.8c47.2,56 64,83.2 98.4,80.8c44,-4 -44,80 -98.4,80s-76,-36 -76,-80.8c0,-44 40.8,-121.6 76,-80z"/>
  <path id="svg_12" fill="#FFC114" d="m195.526,278.6c0,-44.8 41.6,-122.4 76,-80.8c47.2,56 64,83.2 98.4,80.8"/>
  <circle id="svg_13" fill="#32BA7C" r="24.799999" cy="283.4" cx="381.926"/>
  <path id="svg_14" fill="#0AA06E" d="m399.526,266.6c9.6,9.6 9.6,24.8 0,34.4c-9.6,9.6 -24.8,9.6 -34.4,0"/>
  <g id="svg_15">
   <path id="svg_16" fill="#F2EAC4" d="m173.926,140.2l0,0c-24,23.2 -36.8,53.6 -36.8,86.4l20,0c0,-27.2 12,-52.8 31.2,-72.8c19.2,-18.4 41.6,-29.6 73.6,-29.6l0,-20c-32,0 -64,12.8 -88,36z"/>
   <path id="svg_17" fill="#F2EAC4" d="m197.126,166.6c-15.2,15.2 -23.2,36 -23.2,58.4l20.8,0c0,-16.8 4.8,-32 16.8,-44c11.2,-12 26.4,-18.4 42.4,-18.4l0,-20.8c-16,0 -40.8,8.8 -56.8,24.8l0,0z"/>
   <path id="svg_18" fill="#F2EAC4" d="m589.926,426.6l0,0c24,-23.2 36.8,-53.6 36.8,-86.4l-20,0c0,27.2 -12,52.8 -31.2,72.8s-41.6,29.6 -73.6,29.6l0,20c32,0 64,-12.8 88,-36z"/>
   <path id="svg_19" fill="#F2EAC4" d="m566.726,401c15.2,-15.2 23.2,-36 23.2,-58.4l-20.8,0c0,16.8 -4.8,32 -16.8,44c-11.2,12 -26.4,18.4 -42.4,18.4l0,20c16,0 40.8,-8.8 56.8,-24l0,0z"/>
  </g>
  <g id="svg_25"/>
  <g id="svg_26"/>
  <g id="svg_27"/>
  <g id="svg_28"/>
  <g id="svg_29"/>
  <g id="svg_30"/>
  <g id="svg_31"/>
  <g id="svg_32"/>
  <g id="svg_33"/>
  <g id="svg_34"/>
  <g id="svg_35"/>
  <g id="svg_36"/>
  <g id="svg_37"/>
  <g id="svg_38"/>
  <g id="svg_39"/>
 </g>
</svg>