<svg width="64" height="64" xmlns="http://www.w3.org/2000/svg">

 <g>
  <title>background</title>
  <rect fill="none" id="canvas_background" height="402" width="582" y="-1" x="-1"/>
 </g>
 <g>
  <title>Layer 1</title>
  <path id="svg_1" fill="#efe8da" d="m35.3,61.5c-11.4,0 -21.9,-6.7 -26.8,-17c-3.3,-7.1 -3.7,-15.2 -1,-22.6s8.2,-13.3 15.3,-16.6c2.2,-1 4.5,-1.8 6.9,-2.2c-10.5,5 -13.6,20.6 -7,34.8c5.2,11.1 14.9,18.5 24.3,18.5c2.4,0 4.7,-0.5 6.8,-1.5c-1.9,1.5 -3.9,2.8 -6.1,3.8c-3.9,1.9 -8.1,2.8 -12.4,2.8"/>
  <path id="svg_2" fill="#dbd4c8" d="m26.6,4.3c-8.4,6.4 -10.4,20.6 -4.3,33.7c5.2,11.2 15.2,18.8 24.8,18.8c1.3,0 2.6,-0.1 3.8,-0.4c-1.1,0.7 -2.2,1.3 -3.3,1.8c-3.9,1.8 -8,2.7 -12.2,2.7c-11.3,0.1 -21.6,-6.5 -26.4,-16.6c-6.7,-14.5 -0.5,-31.8 14,-38.6c1.2,-0.5 2.4,-1 3.6,-1.4m8.7,-2.3c-4.3,0 -8.6,0.9 -12.7,2.8c-15,7 -21.5,24.9 -14.5,39.9c5.1,10.9 15.9,17.3 27.2,17.3c4.2,0 8.6,-0.9 12.7,-2.8c4.3,-2 7.9,-4.9 10.7,-8.4c-1.4,1.5 -3.1,2.8 -5,3.7c-2.1,1 -4.4,1.5 -6.7,1.5c-9,0 -18.7,-7 -23.9,-18.2c-6.5,-14.2 -3.5,-29.5 6.9,-34.4c1.9,-0.9 3.9,-1.4 6,-1.4c-0.3,0 -0.5,0 -0.7,0z"/>
 </g>
</svg>